# xmcd CD database file
#
# Track frame offsets:
#	150
#	11811
#	27188
#	38074
#	53484
#	71337
#	88541
#	103535
#	117151
#	137066
#	150004
#	169730
#	182928
#	200578
#	215950
#	232812
#	245856
#
# Disc length: 3449 seconds
#
# Revision: 1
# Processed by: cddbd v1.5.2PL0 Copyright (c) Steve Scherf et al.
# Submitted via: CDex 1.51
#
DISCID=e00d7711
DTITLE=Dolly Parton - XTA-30
DYEAR=1900
DGENRE=Blues
TTITLE0=Dolly Parton/In The Ghetto
TTITLE1=Dolly Parton/PMS Blues
TTITLE2=Dolly Parton/9 To 5
TTITLE3=Dolly Parton/Coat Of Many Colors
TTITLE4=Dolly Parton/Hard Candy Christmas
TTITLE5=Dolly Parton/Heartbreaker
TTITLE6=Dolly Parton/Hello God
TTITLE7=Dolly Parton/Here You Come Again
TTITLE8=Dolly Parton/Honky Tonk Songs
TTITLE9=Dolly Parton/I Will Always Love You
TTITLE10=Dolly Parton and Kenny Rogers/Islands In The Stream
TTITLE11=Dolly Parton/Jolene
TTITLE12=Dolly Parton/Just When I Needed You Most
TTITLE13=Dolly Parton/Mule Skinner Blues
TTITLE14=Dolly Parton/Romeo
TTITLE15=Dolly Parton/To Daddy
TTITLE16=Dolly Parton/Last Thing On My Mind (duet)
EXTD=
EXTT0=
EXTT1=
EXTT2=
EXTT3=
EXTT4=
EXTT5=
EXTT6=
EXTT7=
EXTT8=
EXTT9=
EXTT10=
EXTT11=
EXTT12=
EXTT13=
EXTT14=
EXTT15=
EXTT16=
PLAYORDER=
